<svg xmlns="http://www.w3.org/2000/svg" xmlns:xlink="http://www.w3.org/1999/xlink" contentStyleType="text/css" height="1053px" preserveAspectRatio="none" style="width:1966px;height:1053px;background:#FFFFFF;" version="1.1" viewBox="0 0 1966 1053" width="1966px" zoomAndPan="magnify"><defs/><g><!--class Player--><g id="elem_Player"><rect codeLine="1" fill="#F1F1F1" height="129.4844" id="Player" rx="2.5" ry="2.5" style="stroke:#181818;stroke-width:0.5;" width="189" x="1079" y="694.42"/><ellipse cx="1148.75" cy="710.42" fill="#ADD1B2" rx="11" ry="11" style="stroke:#181818;stroke-width:1.0;"/><path d="M1151.7188,716.0606 Q1151.1406,716.3575 1150.5,716.4981 Q1149.8594,716.6544 1149.1563,716.6544 Q1146.6563,716.6544 1145.3281,715.0138 Q1144.0156,713.3575 1144.0156,710.2325 Q1144.0156,707.1075 1145.3281,705.4513 Q1146.6563,703.795 1149.1563,703.795 Q1149.8594,703.795 1150.5,703.9513 Q1151.1563,704.1075 1151.7188,704.4044 L1151.7188,707.1231 Q1151.0938,706.545 1150.5,706.2794 Q1149.9063,705.9981 1149.2813,705.9981 Q1147.9375,705.9981 1147.25,707.0763 Q1146.5625,708.1388 1146.5625,710.2325 Q1146.5625,712.3263 1147.25,713.4044 Q1147.9375,714.4669 1149.2813,714.4669 Q1149.9063,714.4669 1150.5,714.2013 Q1151.0938,713.92 1151.7188,713.3419 L1151.7188,716.0606 Z " fill="#000000"/><text fill="#000000" font-family="sans-serif" font-size="14" lengthAdjust="spacing" textLength="41" x="1169.25" y="715.2667">Player</text><line style="stroke:#181818;stroke-width:0.5;" x1="1080" x2="1267" y1="726.42" y2="726.42"/><rect fill="none" height="6" style="stroke:#C82930;stroke-width:1.0;" width="6" x="1087" y="737.0684"/><text fill="#000000" font-family="sans-serif" font-size="14" lengthAdjust="spacing" textLength="110" x="1099" y="743.4151">chessCount: int</text><rect fill="none" height="6" style="stroke:#C82930;stroke-width:1.0;" width="6" x="1087" y="753.3653"/><text fill="#000000" font-family="sans-serif" font-size="14" lengthAdjust="spacing" textLength="55" x="1099" y="759.712">side: int</text><rect fill="none" height="6" style="stroke:#C82930;stroke-width:1.0;" width="6" x="1087" y="769.6622"/><text fill="#000000" font-family="sans-serif" font-size="14" lengthAdjust="spacing" textLength="88" x="1099" y="776.0089">name: String</text><line style="stroke:#181818;stroke-width:1.0;" x1="1080" x2="1267" y1="783.3106" y2="783.3106"/><ellipse cx="1090" cy="796.9591" fill="#84BE84" rx="3" ry="3" style="stroke:#038048;stroke-width:1.0;"/><text fill="#000000" font-family="sans-serif" font-size="14" lengthAdjust="spacing" textLength="163" x="1099" y="800.3057">costChessCount(): void</text><ellipse cx="1090" cy="813.2559" fill="#84BE84" rx="3" ry="3" style="stroke:#038048;stroke-width:1.0;"/><text fill="#000000" font-family="sans-serif" font-size="14" lengthAdjust="spacing" textLength="145" x="1099" y="816.6026">getChessCount(): int</text></g><!--class Chess--><g id="elem_Chess"><rect codeLine="10" fill="#F1F1F1" height="129.4844" id="Chess" rx="2.5" ry="2.5" style="stroke:#181818;stroke-width:0.5;" width="192" x="509.5" y="917.21"/><ellipse cx="579.25" cy="933.21" fill="#ADD1B2" rx="11" ry="11" style="stroke:#181818;stroke-width:1.0;"/><path d="M582.2188,938.8506 Q581.6406,939.1475 581,939.2881 Q580.3594,939.4444 579.6563,939.4444 Q577.1563,939.4444 575.8281,937.8038 Q574.5156,936.1475 574.5156,933.0225 Q574.5156,929.8975 575.8281,928.2413 Q577.1563,926.585 579.6563,926.585 Q580.3594,926.585 581,926.7413 Q581.6563,926.8975 582.2188,927.1944 L582.2188,929.9131 Q581.5938,929.335 581,929.0694 Q580.4063,928.7881 579.7813,928.7881 Q578.4375,928.7881 577.75,929.8663 Q577.0625,930.9288 577.0625,933.0225 Q577.0625,935.1163 577.75,936.1944 Q578.4375,937.2569 579.7813,937.2569 Q580.4063,937.2569 581,936.9913 Q581.5938,936.71 582.2188,936.1319 L582.2188,938.8506 Z " fill="#000000"/><text fill="#000000" font-family="sans-serif" font-size="14" lengthAdjust="spacing" textLength="44" x="599.75" y="938.0567">Chess</text><line style="stroke:#181818;stroke-width:0.5;" x1="510.5" x2="700.5" y1="949.21" y2="949.21"/><rect fill="none" height="6" style="stroke:#C82930;stroke-width:1.0;" width="6" x="517.5" y="959.8584"/><text fill="#000000" font-family="sans-serif" font-size="14" lengthAdjust="spacing" textLength="88" x="529.5" y="966.2051">name: String</text><rect fill="none" height="6" style="stroke:#C82930;stroke-width:1.0;" width="6" x="517.5" y="976.1553"/><text fill="#000000" font-family="sans-serif" font-size="14" lengthAdjust="spacing" textLength="103" x="529.5" y="982.502">weight: double</text><rect fill="none" height="6" style="stroke:#C82930;stroke-width:1.0;" width="6" x="517.5" y="992.4522"/><text fill="#000000" font-family="sans-serif" font-size="14" lengthAdjust="spacing" textLength="55" x="529.5" y="998.7989">side: int</text><rect fill="none" height="6" style="stroke:#C82930;stroke-width:1.0;" width="6" x="517.5" y="1008.7491"/><text fill="#000000" font-family="sans-serif" font-size="14" lengthAdjust="spacing" textLength="166" x="529.5" y="1015.0957">loc: Pair&lt;String, String&gt;</text><line style="stroke:#181818;stroke-width:1.0;" x1="510.5" x2="700.5" y1="1022.3975" y2="1022.3975"/><ellipse cx="520.5" cy="1036.0459" fill="#84BE84" rx="3" ry="3" style="stroke:#038048;stroke-width:1.0;"/><text fill="#000000" font-family="sans-serif" font-size="14" lengthAdjust="spacing" textLength="101" x="529.5" y="1039.3926">toString(): void</text></g><!--class AbstructGame--><g id="elem_AbstructGame"><rect codeLine="19" fill="#F1F1F1" height="96.8906" id="AbstructGame" rx="2.5" ry="2.5" style="stroke:#181818;stroke-width:0.5;" width="421" x="505" y="710.72"/><ellipse cx="661.75" cy="726.72" fill="#A9DCDF" rx="11" ry="11" style="stroke:#181818;stroke-width:1.0;"/><path d="M661.8594,722.0638 L660.7031,727.1419 L663.0313,727.1419 L661.8594,722.0638 Z M660.375,719.8294 L663.3594,719.8294 L666.7188,732.22 L664.2656,732.22 L663.5,729.1575 L660.2188,729.1575 L659.4688,732.22 L657.0313,732.22 L660.375,719.8294 Z " fill="#000000"/><text fill="#000000" font-family="sans-serif" font-size="14" font-style="italic" lengthAdjust="spacing" textLength="99" x="682.25" y="731.5667">AbstructGame</text><line style="stroke:#181818;stroke-width:0.5;" x1="506" x2="925" y1="742.72" y2="742.72"/><line style="stroke:#181818;stroke-width:0.5;" x1="506" x2="925" y1="750.72" y2="750.72"/><polygon fill="#FFFF44" points="516,759.3684,520,763.3684,516,767.3684,512,763.3684" style="stroke:#B38D22;stroke-width:1.0;"/><text fill="#000000" font-family="sans-serif" font-size="14" lengthAdjust="spacing" textLength="208" x="525" y="767.7151">setPlayers(Player, Player): void</text><ellipse cx="516" cy="780.6653" fill="#84BE84" rx="3" ry="3" style="stroke:#038048;stroke-width:1.0;"/><text fill="#000000" font-family="sans-serif" font-size="14" lengthAdjust="spacing" textLength="146" x="525" y="784.012">gameOver(): boolean</text><ellipse cx="516" cy="796.9622" fill="#84BE84" rx="3" ry="3" style="stroke:#038048;stroke-width:1.0;"/><text fill="#000000" font-family="sans-serif" font-size="14" lengthAdjust="spacing" textLength="395" x="525" y="800.3089">move(Pair&lt;String, String&gt;, Pair&lt;String, String&gt;): boolean</text></g><!--class ChessGame--><g id="elem_ChessGame"><rect codeLine="25" fill="#F1F1F1" height="276.1563" id="ChessGame" rx="2.5" ry="2.5" style="stroke:#181818;stroke-width:0.5;" width="421" x="678" y="309.97"/><ellipse cx="841.75" cy="325.97" fill="#ADD1B2" rx="11" ry="11" style="stroke:#181818;stroke-width:1.0;"/><path d="M844.7188,331.6106 Q844.1406,331.9075 843.5,332.0481 Q842.8594,332.2044 842.1563,332.2044 Q839.6563,332.2044 838.3281,330.5638 Q837.0156,328.9075 837.0156,325.7825 Q837.0156,322.6575 838.3281,321.0013 Q839.6563,319.345 842.1563,319.345 Q842.8594,319.345 843.5,319.5013 Q844.1563,319.6575 844.7188,319.9544 L844.7188,322.6731 Q844.0938,322.095 843.5,321.8294 Q842.9063,321.5481 842.2813,321.5481 Q840.9375,321.5481 840.25,322.6263 Q839.5625,323.6888 839.5625,325.7825 Q839.5625,327.8763 840.25,328.9544 Q840.9375,330.0169 842.2813,330.0169 Q842.9063,330.0169 843.5,329.7513 Q844.0938,329.47 844.7188,328.8919 L844.7188,331.6106 Z " fill="#000000"/><text fill="#000000" font-family="sans-serif" font-size="14" lengthAdjust="spacing" textLength="85" x="862.25" y="330.8167">ChessGame</text><line style="stroke:#181818;stroke-width:0.5;" x1="679" x2="1098" y1="341.97" y2="341.97"/><rect fill="none" height="6" style="stroke:#C82930;stroke-width:1.0;" width="6" x="686" y="352.6184"/><text fill="#000000" font-family="sans-serif" font-size="14" lengthAdjust="spacing" textLength="100" x="698" y="358.9651">player1: Player</text><rect fill="none" height="6" style="stroke:#C82930;stroke-width:1.0;" width="6" x="686" y="368.9153"/><text fill="#000000" font-family="sans-serif" font-size="14" lengthAdjust="spacing" textLength="100" x="698" y="375.262">player2: Player</text><rect fill="none" height="6" style="stroke:#C82930;stroke-width:1.0;" width="6" x="686" y="385.2122"/><text fill="#000000" font-family="sans-serif" font-size="14" lengthAdjust="spacing" textLength="134" x="698" y="391.5589">board: ChessBoard</text><rect fill="none" height="6" style="stroke:#C82930;stroke-width:1.0;" width="6" x="686" y="401.5091"/><text fill="#000000" font-family="sans-serif" font-size="14" lengthAdjust="spacing" textLength="149" x="698" y="407.8557">isGameOver: boolean</text><rect fill="none" height="6" style="stroke:#C82930;stroke-width:1.0;" width="6" x="686" y="417.8059"/><text fill="#000000" font-family="sans-serif" font-size="14" lengthAdjust="spacing" textLength="54" x="698" y="424.1526">turn: int</text><line style="stroke:#181818;stroke-width:1.0;" x1="679" x2="1098" y1="431.4544" y2="431.4544"/><ellipse cx="689" cy="445.1028" fill="#84BE84" rx="3" ry="3" style="stroke:#038048;stroke-width:1.0;"/><text fill="#000000" font-family="sans-serif" font-size="14" lengthAdjust="spacing" textLength="78" x="698" y="448.4495">start(): void</text><ellipse cx="689" cy="461.3997" fill="#84BE84" rx="3" ry="3" style="stroke:#038048;stroke-width:1.0;"/><text fill="#000000" font-family="sans-serif" font-size="14" lengthAdjust="spacing" textLength="143" x="698" y="464.7464">showAllChess(): void</text><ellipse cx="689" cy="477.6966" fill="#84BE84" rx="3" ry="3" style="stroke:#038048;stroke-width:1.0;"/><text fill="#000000" font-family="sans-serif" font-size="14" lengthAdjust="spacing" textLength="154" x="698" y="481.0432">generateChess(): void</text><ellipse cx="689" cy="493.9934" fill="#84BE84" rx="3" ry="3" style="stroke:#038048;stroke-width:1.0;"/><text fill="#000000" font-family="sans-serif" font-size="14" lengthAdjust="spacing" textLength="208" x="698" y="497.3401">setPlayers(Player, Player): void</text><ellipse cx="689" cy="510.2903" fill="#84BE84" rx="3" ry="3" style="stroke:#038048;stroke-width:1.0;"/><text fill="#000000" font-family="sans-serif" font-size="14" lengthAdjust="spacing" textLength="146" x="698" y="513.637">gameOver(): boolean</text><ellipse cx="689" cy="526.5872" fill="#84BE84" rx="3" ry="3" style="stroke:#038048;stroke-width:1.0;"/><text fill="#000000" font-family="sans-serif" font-size="14" lengthAdjust="spacing" textLength="395" x="698" y="529.9339">move(Pair&lt;String, String&gt;, Pair&lt;String, String&gt;): boolean</text><rect fill="#F24D5C" height="6" style="stroke:#C82930;stroke-width:1.0;" width="6" x="686" y="539.8841"/><text fill="#000000" font-family="sans-serif" font-size="14" lengthAdjust="spacing" textLength="162" x="698" y="546.2307">checkGameOver(): void</text><ellipse cx="689" cy="559.1809" fill="#84BE84" rx="3" ry="3" style="stroke:#038048;stroke-width:1.0;"/><text fill="#000000" font-family="sans-serif" font-size="14" lengthAdjust="spacing" textLength="147" x="698" y="562.5276">getBoard(): Chess[][]</text><ellipse cx="689" cy="575.4778" fill="#84BE84" rx="3" ry="3" style="stroke:#038048;stroke-width:1.0;"/><text fill="#000000" font-family="sans-serif" font-size="14" lengthAdjust="spacing" textLength="215" x="698" y="578.8245">getCurrentPlayerName(): String</text></g><!--class ChessBoard--><g id="elem_ChessBoard"><rect codeLine="43" fill="#F1F1F1" height="162.0781" id="ChessBoard" rx="2.5" ry="2.5" style="stroke:#181818;stroke-width:0.5;" width="463" x="7" y="678.13"/><ellipse cx="191.75" cy="694.13" fill="#ADD1B2" rx="11" ry="11" style="stroke:#181818;stroke-width:1.0;"/><path d="M194.7188,699.7706 Q194.1406,700.0675 193.5,700.2081 Q192.8594,700.3644 192.1563,700.3644 Q189.6563,700.3644 188.3281,698.7238 Q187.0156,697.0675 187.0156,693.9425 Q187.0156,690.8175 188.3281,689.1613 Q189.6563,687.505 192.1563,687.505 Q192.8594,687.505 193.5,687.6613 Q194.1563,687.8175 194.7188,688.1144 L194.7188,690.8331 Q194.0938,690.255 193.5,689.9894 Q192.9063,689.7081 192.2813,689.7081 Q190.9375,689.7081 190.25,690.7863 Q189.5625,691.8488 189.5625,693.9425 Q189.5625,696.0363 190.25,697.1144 Q190.9375,698.1769 192.2813,698.1769 Q192.9063,698.1769 193.5,697.9113 Q194.0938,697.63 194.7188,697.0519 L194.7188,699.7706 Z " fill="#000000"/><text fill="#000000" font-family="sans-serif" font-size="14" lengthAdjust="spacing" textLength="85" x="212.25" y="698.9767">ChessBoard</text><line style="stroke:#181818;stroke-width:0.5;" x1="8" x2="469" y1="710.13" y2="710.13"/><rect fill="none" height="6" style="stroke:#C82930;stroke-width:1.0;" width="6" x="15" y="720.7784"/><text fill="#000000" font-family="sans-serif" font-size="14" lengthAdjust="spacing" textLength="120" x="27" y="727.1251">_board: Chess[][]</text><rect fill="none" height="6" style="stroke:#C82930;stroke-width:1.0;" width="6" x="15" y="737.0753"/><text fill="#000000" font-family="sans-serif" font-size="14" lengthAdjust="spacing" textLength="134" x="27" y="743.422">_refboard: String[][]</text><line style="stroke:#181818;stroke-width:1.0;" x1="8" x2="469" y1="750.7238" y2="750.7238"/><ellipse cx="18" cy="764.3722" fill="#84BE84" rx="3" ry="3" style="stroke:#038048;stroke-width:1.0;"/><text fill="#000000" font-family="sans-serif" font-size="14" lengthAdjust="spacing" textLength="119" x="27" y="767.7189">printBoard(): void</text><ellipse cx="18" cy="780.6691" fill="#84BE84" rx="3" ry="3" style="stroke:#038048;stroke-width:1.0;"/><text fill="#000000" font-family="sans-serif" font-size="14" lengthAdjust="spacing" textLength="142" x="27" y="784.0157">printRefBoard(): void</text><ellipse cx="18" cy="796.9659" fill="#84BE84" rx="3" ry="3" style="stroke:#038048;stroke-width:1.0;"/><text fill="#000000" font-family="sans-serif" font-size="14" lengthAdjust="spacing" textLength="168" x="27" y="800.3126">setUpInitialPieces(): void</text><ellipse cx="18" cy="813.2628" fill="#84BE84" rx="3" ry="3" style="stroke:#038048;stroke-width:1.0;"/><text fill="#000000" font-family="sans-serif" font-size="14" lengthAdjust="spacing" textLength="437" x="27" y="816.6095">isValidMove(Pair&lt;String, String&gt;, Pair&lt;String, String&gt;): boolean</text><ellipse cx="18" cy="829.5597" fill="#84BE84" rx="3" ry="3" style="stroke:#038048;stroke-width:1.0;"/><text fill="#000000" font-family="sans-serif" font-size="14" lengthAdjust="spacing" textLength="429" x="27" y="832.9064">makeMove(int, Pair&lt;String, String&gt;, Pair&lt;String, String&gt;): void</text></g><!--class Pair--><g id="elem_Pair"><rect codeLine="54" fill="#F1F1F1" height="113.1875" id="Pair" rx="2.5" ry="2.5" style="stroke:#181818;stroke-width:0.5;" width="78" x="883.5" y="925.35"/><ellipse cx="907.95" cy="941.35" fill="#ADD1B2" rx="11" ry="11" style="stroke:#181818;stroke-width:1.0;"/><path d="M910.9188,946.9906 Q910.3406,947.2875 909.7,947.4281 Q909.0594,947.5844 908.3563,947.5844 Q905.8563,947.5844 904.5281,945.9438 Q903.2156,944.2875 903.2156,941.1625 Q903.2156,938.0375 904.5281,936.3813 Q905.8563,934.725 908.3563,934.725 Q909.0594,934.725 909.7,934.8813 Q910.3563,935.0375 910.9188,935.3344 L910.9188,938.0531 Q910.2938,937.475 909.7,937.2094 Q909.1063,936.9281 908.4813,936.9281 Q907.1375,936.9281 906.45,938.0063 Q905.7625,939.0688 905.7625,941.1625 Q905.7625,943.2563 906.45,944.3344 Q907.1375,945.3969 908.4813,945.3969 Q909.1063,945.3969 909.7,945.1313 Q910.2938,944.85 910.9188,944.2719 L910.9188,946.9906 Z " fill="#000000"/><text fill="#000000" font-family="sans-serif" font-size="14" lengthAdjust="spacing" textLength="25" x="924.05" y="946.1967">Pair</text><line style="stroke:#181818;stroke-width:0.5;" x1="884.5" x2="960.5" y1="957.35" y2="957.35"/><polygon fill="none" points="894.5,965.9984,898.5,969.9984,894.5,973.9984,890.5,969.9984" style="stroke:#B38D22;stroke-width:1.0;"/><text fill="#000000" font-family="sans-serif" font-size="14" lengthAdjust="spacing" textLength="25" x="903.5" y="974.3451">first</text><polygon fill="none" points="894.5,982.2953,898.5,986.2953,894.5,990.2953,890.5,986.2953" style="stroke:#B38D22;stroke-width:1.0;"/><text fill="#000000" font-family="sans-serif" font-size="14" lengthAdjust="spacing" textLength="52" x="903.5" y="990.642">second</text><ellipse cx="894.5" cy="1003.5922" fill="none" rx="3" ry="3" style="stroke:#038048;stroke-width:1.0;"/><text fill="#000000" font-family="sans-serif" font-size="14" lengthAdjust="spacing" textLength="33" x="903.5" y="1006.9389">x: int</text><ellipse cx="894.5" cy="1019.8891" fill="none" rx="3" ry="3" style="stroke:#038048;stroke-width:1.0;"/><text fill="#000000" font-family="sans-serif" font-size="14" lengthAdjust="spacing" textLength="33" x="903.5" y="1023.2357">y: int</text><line style="stroke:#181818;stroke-width:0.5;" x1="884.5" x2="960.5" y1="1030.5375" y2="1030.5375"/></g><!--class chessGameGUI--><g id="elem_chessGameGUI"><rect codeLine="61" fill="#F1F1F1" height="210.9688" id="chessGameGUI" rx="2.5" ry="2.5" style="stroke:#181818;stroke-width:0.5;" width="295" x="1283" y="7"/><ellipse cx="1372.75" cy="23" fill="#ADD1B2" rx="11" ry="11" style="stroke:#181818;stroke-width:1.0;"/><path d="M1375.7188,28.6406 Q1375.1406,28.9375 1374.5,29.0781 Q1373.8594,29.2344 1373.1563,29.2344 Q1370.6563,29.2344 1369.3281,27.5938 Q1368.0156,25.9375 1368.0156,22.8125 Q1368.0156,19.6875 1369.3281,18.0313 Q1370.6563,16.375 1373.1563,16.375 Q1373.8594,16.375 1374.5,16.5313 Q1375.1563,16.6875 1375.7188,16.9844 L1375.7188,19.7031 Q1375.0938,19.125 1374.5,18.8594 Q1373.9063,18.5781 1373.2813,18.5781 Q1371.9375,18.5781 1371.25,19.6563 Q1370.5625,20.7188 1370.5625,22.8125 Q1370.5625,24.9063 1371.25,25.9844 Q1371.9375,27.0469 1373.2813,27.0469 Q1373.9063,27.0469 1374.5,26.7813 Q1375.0938,26.5 1375.7188,25.9219 L1375.7188,28.6406 Z " fill="#000000"/><text fill="#000000" font-family="sans-serif" font-size="14" lengthAdjust="spacing" textLength="107" x="1393.25" y="27.8467">chessGameGUI</text><line style="stroke:#181818;stroke-width:0.5;" x1="1284" x2="1577" y1="39" y2="39"/><rect fill="none" height="6" style="stroke:#C82930;stroke-width:1.0;" width="6" x="1291" y="49.6484"/><text fill="#000000" font-family="sans-serif" font-size="14" lengthAdjust="spacing" textLength="133" x="1303" y="55.9951">game: ChessGame</text><rect fill="none" height="6" style="stroke:#C82930;stroke-width:1.0;" width="6" x="1291" y="65.9453"/><text fill="#000000" font-family="sans-serif" font-size="14" lengthAdjust="spacing" textLength="241" x="1303" y="72.292">selectedFrom: Pair&lt;String, String&gt;</text><rect fill="none" height="6" style="stroke:#C82930;stroke-width:1.0;" width="6" x="1291" y="82.2422"/><text fill="#000000" font-family="sans-serif" font-size="14" lengthAdjust="spacing" textLength="269" x="1303" y="88.5889">pieceImages: Map&lt;String, ImageIcon&gt;</text><rect fill="none" height="6" style="stroke:#C82930;stroke-width:1.0;" width="6" x="1291" y="98.5391"/><text fill="#000000" font-family="sans-serif" font-size="14" lengthAdjust="spacing" textLength="133" x="1303" y="104.8857">buttons: JButton[][]</text><rect fill="none" height="6" style="stroke:#C82930;stroke-width:1.0;" width="6" x="1291" y="114.8359"/><text fill="#000000" font-family="sans-serif" font-size="14" lengthAdjust="spacing" textLength="128" x="1303" y="121.1826">boardPanel: JPanel</text><rect fill="none" height="6" style="stroke:#C82930;stroke-width:1.0;" width="6" x="1291" y="131.1328"/><text fill="#000000" font-family="sans-serif" font-size="14" lengthAdjust="spacing" textLength="175" x="1303" y="137.4795">currentPlayerLabel: JLabel</text><line style="stroke:#181818;stroke-width:1.0;" x1="1284" x2="1577" y1="144.7813" y2="144.7813"/><ellipse cx="1294" cy="158.4297" fill="#84BE84" rx="3" ry="3" style="stroke:#038048;stroke-width:1.0;"/><text fill="#000000" font-family="sans-serif" font-size="14" lengthAdjust="spacing" textLength="137" x="1303" y="161.7764">updateBoard(): void</text><ellipse cx="1294" cy="174.7266" fill="#84BE84" rx="3" ry="3" style="stroke:#038048;stroke-width:1.0;"/><text fill="#000000" font-family="sans-serif" font-size="14" lengthAdjust="spacing" textLength="189" x="1303" y="178.0732">updateCurrentPlayer(): void</text><ellipse cx="1294" cy="191.0234" fill="#84BE84" rx="3" ry="3" style="stroke:#038048;stroke-width:1.0;"/><text fill="#000000" font-family="sans-serif" font-size="14" lengthAdjust="spacing" textLength="168" x="1303" y="194.3701">handleClick(int, int): void</text><ellipse cx="1294" cy="207.3203" fill="#84BE84" rx="3" ry="3" style="stroke:#038048;stroke-width:1.0;"/><text fill="#000000" font-family="sans-serif" font-size="14" lengthAdjust="spacing" textLength="155" x="1303" y="210.667">initializeBoardUI(): void</text></g><!--class JButton--><g id="elem_JButton"><rect fill="#F1F1F1" height="48" id="JButton" rx="2.5" ry="2.5" style="stroke:#181818;stroke-width:0.5;" width="82" x="1425.5" y="424.05"/><ellipse cx="1440.5" cy="440.05" fill="#ADD1B2" rx="11" ry="11" style="stroke:#181818;stroke-width:1.0;"/><path d="M1443.4688,445.6906 Q1442.8906,445.9875 1442.25,446.1281 Q1441.6094,446.2844 1440.9063,446.2844 Q1438.4063,446.2844 1437.0781,444.6438 Q1435.7656,442.9875 1435.7656,439.8625 Q1435.7656,436.7375 1437.0781,435.0813 Q1438.4063,433.425 1440.9063,433.425 Q1441.6094,433.425 1442.25,433.5813 Q1442.9063,433.7375 1443.4688,434.0344 L1443.4688,436.7531 Q1442.8438,436.175 1442.25,435.9094 Q1441.6563,435.6281 1441.0313,435.6281 Q1439.6875,435.6281 1439,436.7063 Q1438.3125,437.7688 1438.3125,439.8625 Q1438.3125,441.9563 1439,443.0344 Q1439.6875,444.0969 1441.0313,444.0969 Q1441.6563,444.0969 1442.25,443.8313 Q1442.8438,443.55 1443.4688,442.9719 L1443.4688,445.6906 Z " fill="#000000"/><text fill="#000000" font-family="sans-serif" font-size="14" lengthAdjust="spacing" textLength="50" x="1454.5" y="444.8967">JButton</text><line style="stroke:#181818;stroke-width:0.5;" x1="1426.5" x2="1506.5" y1="456.05" y2="456.05"/><line style="stroke:#181818;stroke-width:0.5;" x1="1426.5" x2="1506.5" y1="464.05" y2="464.05"/></g><!--class JLabel--><g id="elem_JLabel"><rect fill="#F1F1F1" height="48" id="JLabel" rx="2.5" ry="2.5" style="stroke:#181818;stroke-width:0.5;" width="71" x="1549" y="424.05"/><ellipse cx="1564" cy="440.05" fill="#ADD1B2" rx="11" ry="11" style="stroke:#181818;stroke-width:1.0;"/><path d="M1566.9688,445.6906 Q1566.3906,445.9875 1565.75,446.1281 Q1565.1094,446.2844 1564.4063,446.2844 Q1561.9063,446.2844 1560.5781,444.6438 Q1559.2656,442.9875 1559.2656,439.8625 Q1559.2656,436.7375 1560.5781,435.0813 Q1561.9063,433.425 1564.4063,433.425 Q1565.1094,433.425 1565.75,433.5813 Q1566.4063,433.7375 1566.9688,434.0344 L1566.9688,436.7531 Q1566.3438,436.175 1565.75,435.9094 Q1565.1563,435.6281 1564.5313,435.6281 Q1563.1875,435.6281 1562.5,436.7063 Q1561.8125,437.7688 1561.8125,439.8625 Q1561.8125,441.9563 1562.5,443.0344 Q1563.1875,444.0969 1564.5313,444.0969 Q1565.1563,444.0969 1565.75,443.8313 Q1566.3438,443.55 1566.9688,442.9719 L1566.9688,445.6906 Z " fill="#000000"/><text fill="#000000" font-family="sans-serif" font-size="14" lengthAdjust="spacing" textLength="39" x="1578" y="444.8967">JLabel</text><line style="stroke:#181818;stroke-width:0.5;" x1="1550" x2="1619" y1="456.05" y2="456.05"/><line style="stroke:#181818;stroke-width:0.5;" x1="1550" x2="1619" y1="464.05" y2="464.05"/></g><!--class JPanel--><g id="elem_JPanel"><rect fill="#F1F1F1" height="48" id="JPanel" rx="2.5" ry="2.5" style="stroke:#181818;stroke-width:0.5;" width="73" x="1732" y="424.05"/><ellipse cx="1747" cy="440.05" fill="#ADD1B2" rx="11" ry="11" style="stroke:#181818;stroke-width:1.0;"/><path d="M1749.9688,445.6906 Q1749.3906,445.9875 1748.75,446.1281 Q1748.1094,446.2844 1747.4063,446.2844 Q1744.9063,446.2844 1743.5781,444.6438 Q1742.2656,442.9875 1742.2656,439.8625 Q1742.2656,436.7375 1743.5781,435.0813 Q1744.9063,433.425 1747.4063,433.425 Q1748.1094,433.425 1748.75,433.5813 Q1749.4063,433.7375 1749.9688,434.0344 L1749.9688,436.7531 Q1749.3438,436.175 1748.75,435.9094 Q1748.1563,435.6281 1747.5313,435.6281 Q1746.1875,435.6281 1745.5,436.7063 Q1744.8125,437.7688 1744.8125,439.8625 Q1744.8125,441.9563 1745.5,443.0344 Q1746.1875,444.0969 1747.5313,444.0969 Q1748.1563,444.0969 1748.75,443.8313 Q1749.3438,443.55 1749.9688,442.9719 L1749.9688,445.6906 Z " fill="#000000"/><text fill="#000000" font-family="sans-serif" font-size="14" lengthAdjust="spacing" textLength="41" x="1761" y="444.8967">JPanel</text><line style="stroke:#181818;stroke-width:0.5;" x1="1733" x2="1804" y1="456.05" y2="456.05"/><line style="stroke:#181818;stroke-width:0.5;" x1="1733" x2="1804" y1="464.05" y2="464.05"/></g><!--class Map--><g id="elem_Map"><rect fill="#F1F1F1" height="48" id="Map" rx="2.5" ry="2.5" style="stroke:#181818;stroke-width:0.5;" width="61" x="1857" y="424.05"/><ellipse cx="1872" cy="440.05" fill="#ADD1B2" rx="11" ry="11" style="stroke:#181818;stroke-width:1.0;"/><path d="M1874.9688,445.6906 Q1874.3906,445.9875 1873.75,446.1281 Q1873.1094,446.2844 1872.4063,446.2844 Q1869.9063,446.2844 1868.5781,444.6438 Q1867.2656,442.9875 1867.2656,439.8625 Q1867.2656,436.7375 1868.5781,435.0813 Q1869.9063,433.425 1872.4063,433.425 Q1873.1094,433.425 1873.75,433.5813 Q1874.4063,433.7375 1874.9688,434.0344 L1874.9688,436.7531 Q1874.3438,436.175 1873.75,435.9094 Q1873.1563,435.6281 1872.5313,435.6281 Q1871.1875,435.6281 1870.5,436.7063 Q1869.8125,437.7688 1869.8125,439.8625 Q1869.8125,441.9563 1870.5,443.0344 Q1871.1875,444.0969 1872.5313,444.0969 Q1873.1563,444.0969 1873.75,443.8313 Q1874.3438,443.55 1874.9688,442.9719 L1874.9688,445.6906 Z " fill="#000000"/><text fill="#000000" font-family="sans-serif" font-size="14" lengthAdjust="spacing" textLength="29" x="1886" y="444.8967">Map</text><line style="stroke:#181818;stroke-width:0.5;" x1="1858" x2="1917" y1="456.05" y2="456.05"/><line style="stroke:#181818;stroke-width:0.5;" x1="1858" x2="1917" y1="464.05" y2="464.05"/></g><!--link ChessGame to AbstructGame--><g id="link_ChessGame_AbstructGame"><path codeLine="75" d="M811.61,586.43 C786.8,630.78 763.8405,671.7943 745.1905,705.1143 " fill="none" id="ChessGame-to-AbstructGame" style="stroke:#181818;stroke-width:1.0;"/><polygon fill="#181818" points="742.26,710.35,750.1462,704.4502,744.7021,705.987,743.1653,700.5428,742.26,710.35" style="stroke:#181818;stroke-width:1.0;"/></g><!--link ChessGame to ChessBoard--><g id="link_ChessGame_ChessBoard"><path codeLine="77" d="M677.91,549.2 C590.4,590.81 506.4656,630.7298 423.8656,670.0098 " fill="none" id="ChessGame-to-ChessBoard" style="stroke:#181818;stroke-width:1.0;"/><polygon fill="none" points="407.61,677.74,426.4423,675.4283,421.2888,664.5912,407.61,677.74" style="stroke:#181818;stroke-width:1.0;"/></g><!--link ChessGame to Player--><g id="link_ChessGame_Player"><path codeLine="79" d="M1008.2,586.51 C1026.86,607.33 1046.06,628.42 1064.5,648.13 C1078.65,663.24 1089.9375,674.9475 1104.6875,689.9075 " fill="none" id="ChessGame-to-Player" style="stroke:#181818;stroke-width:1.0;"/><polygon fill="#181818" points="1108.9,694.18,1105.4295,684.9629,1105.3895,690.6196,1099.7328,690.5796,1108.9,694.18" style="stroke:#181818;stroke-width:1.0;"/><text fill="#000000" font-family="sans-serif" font-size="13" lengthAdjust="spacing" textLength="76" x="1065.5" y="629.1969">setPlayers()</text><text fill="#000000" font-family="sans-serif" font-size="13" lengthAdjust="spacing" textLength="39" x="1084" y="644.3297">1 --- 2</text></g><!--link ChessBoard to Chess--><g id="link_ChessBoard_Chess"><path codeLine="81" d="M372.29,840.65 C417.57,867.89 462.0688,894.6567 503.8688,919.8067 " fill="none" id="ChessBoard-to-Chess" style="stroke:#181818;stroke-width:1.0;"/><polygon fill="#181818" points="509.01,922.9,503.3605,914.8326,504.7257,920.3222,499.2361,921.6875,509.01,922.9" style="stroke:#181818;stroke-width:1.0;"/><text fill="#000000" font-family="sans-serif" font-size="13" lengthAdjust="spacing" textLength="54" x="444.5" y="883.2769">contains</text><text fill="#000000" font-family="sans-serif" font-size="13" lengthAdjust="spacing" textLength="8" x="493.6303" y="915.0843">1</text></g><!--link ChessGame to Pair--><g id="link_ChessGame_Pair"><path codeLine="83" d="M927.05,586.5 C933.89,616.46 939.95,648.17 943.5,678.13 C951.97,749.66 948.83,768.37 943.5,840.21 C941.42,868.29 937.9933,893.3495 933.7633,919.0795 " fill="none" id="ChessGame-to-Pair" style="stroke:#181818;stroke-width:1.0;stroke-dasharray:7.0,7.0;"/><polygon fill="#181818" points="932.79,925,938.197,916.7681,933.6011,920.0662,930.303,915.4703,932.79,925" style="stroke:#181818;stroke-width:1.0;"/><text fill="#000000" font-family="sans-serif" font-size="13" lengthAdjust="spacing" textLength="46" x="949.5" y="763.7369">move()</text><text fill="#000000" font-family="sans-serif" font-size="13" lengthAdjust="spacing" textLength="8" x="925.5566" y="914.2209">2</text></g><!--link Chess to Pair--><g id="link_Chess_Pair"><path codeLine="85" d="M701.9,981.95 C762.74,981.95 832.08,981.95 877.11,981.95 " fill="none" id="Chess-to-Pair" style="stroke:#181818;stroke-width:1.0;"/><polygon fill="#181818" points="883.11,981.95,874.11,977.95,878.11,981.95,874.11,985.95,883.11,981.95" style="stroke:#181818;stroke-width:1.0;"/><text fill="#000000" font-family="sans-serif" font-size="13" lengthAdjust="spacing" textLength="8" x="867.3812" y="977.6939">1</text></g><!--link ChessBoard to Pair--><g id="link_ChessBoard_Pair"><path codeLine="87" d="M470.07,834.91 C621.03,883.64 798.4302,940.8965 877.4102,966.3965 " fill="none" id="ChessBoard-to-Pair" style="stroke:#181818;stroke-width:1.0;stroke-dasharray:7.0,7.0;"/><polygon fill="#181818" points="883.12,968.24,875.7843,961.6682,878.3619,966.7038,873.3263,969.2813,883.12,968.24" style="stroke:#181818;stroke-width:1.0;"/><text fill="#000000" font-family="sans-serif" font-size="13" lengthAdjust="spacing" textLength="8" x="867.3929" y="961.5418">2</text></g><!--link chessGameGUI to ChessGame--><g id="link_chessGameGUI_ChessGame"><path codeLine="90" d="M1282.65,146.41 C1209.29,167.48 1121.96,200.05 1053.5,247.97 C1028.95,265.15 1010.0079,282.4539 989.4679,305.2339 " fill="none" id="chessGameGUI-to-ChessGame" style="stroke:#181818;stroke-width:1.0;"/><polygon fill="#181818" points="985.45,309.69,994.4476,305.6845,988.7982,305.9766,988.5061,300.3273,985.45,309.69" style="stroke:#181818;stroke-width:1.0;"/><text fill="#000000" font-family="sans-serif" font-size="13" lengthAdjust="spacing" textLength="87" x="1054.5" y="261.0369">game.move()</text><text fill="#000000" font-family="sans-serif" font-size="13" lengthAdjust="spacing" textLength="69" x="1063.5" y="276.1697">getBoard()</text><text fill="#000000" font-family="sans-serif" font-size="13" lengthAdjust="spacing" textLength="8" x="982.5332" y="298.7839">1</text></g><!--link chessGameGUI to Player--><g id="link_chessGameGUI_Player"><path codeLine="91" d="M1282.67,205.46 C1248.12,234.45 1215.58,269.62 1195.5,309.97 C1133.55,434.47 1146.3756,597.3201 1160.3756,688.1101 " fill="none" id="chessGameGUI-to-Player" style="stroke:#181818;stroke-width:1.0;"/><polygon fill="#181818" points="1161.29,694.04,1163.8717,684.5355,1160.528,689.0984,1155.9651,685.7547,1161.29,694.04" style="stroke:#181818;stroke-width:1.0;"/><text fill="#000000" font-family="sans-serif" font-size="13" lengthAdjust="spacing" textLength="149" x="1196.5" y="452.6169">new Player(name, side)</text><text fill="#000000" font-family="sans-serif" font-size="13" lengthAdjust="spacing" textLength="8" x="1151.517" y="683.1711">2</text></g><!--reverse link chessGameGUI to JButton--><g id="link_chessGameGUI_JButton"><path codeLine="92" d="M1427.7254,230.4683 C1427.5554,240.4383 1427.61,238.4 1427.5,247.97 C1427.34,262.19 1425.87,265.84 1427.5,279.97 C1433.5,332.05 1449.68,391.49 1459.21,423.56 " fill="none" id="chessGameGUI-backto-JButton" style="stroke:#181818;stroke-width:1.0;"/><polygon fill="#181818" points="1427.93,218.47,1423.8283,224.4009,1427.7254,230.4683,1431.8271,224.5373,1427.93,218.47" style="stroke:#181818;stroke-width:1.0;"/><text fill="#000000" font-family="sans-serif" font-size="13" lengthAdjust="spacing" textLength="112" x="1428.5" y="268.5369">initializeBoardUI()</text><text fill="#000000" font-family="sans-serif" font-size="13" lengthAdjust="spacing" textLength="16" x="1439.4831" y="412.8455">32</text></g><!--reverse link chessGameGUI to JLabel--><g id="link_chessGameGUI_JLabel"><path codeLine="93" d="M1535.0272,228.2873 C1541.4272,237.9273 1540.62,237.88 1545.5,247.97 C1574.02,306.94 1581.68,385.31 1583.74,423.76 " fill="none" id="chessGameGUI-backto-JLabel" style="stroke:#181818;stroke-width:1.0;"/><polygon fill="#181818" points="1528.39,218.29,1528.3762,225.5011,1535.0272,228.2873,1535.0411,221.0763,1528.39,218.29" style="stroke:#181818;stroke-width:1.0;"/><text fill="#000000" font-family="sans-serif" font-size="13" lengthAdjust="spacing" textLength="142" x="1558.5" y="268.5369">updateCurrentPlayer()</text><text fill="#000000" font-family="sans-serif" font-size="13" lengthAdjust="spacing" textLength="8" x="1574.5798" y="413.0943">1</text></g><!--reverse link chessGameGUI to JPanel--><g id="link_chessGameGUI_JPanel"><path codeLine="94" d="M1589.4059,162.5323 C1636.9759,183.2023 1675.18,207.63 1709.5,247.97 C1753.53,299.73 1764.71,383.2 1767.54,423.62 " fill="none" id="chessGameGUI-backto-JPanel" style="stroke:#181818;stroke-width:1.0;"/><polygon fill="#181818" points="1578.4,157.75,1582.3089,163.8098,1589.4059,162.5323,1585.497,156.4725,1578.4,157.75" style="stroke:#181818;stroke-width:1.0;"/><text fill="#000000" font-family="sans-serif" font-size="13" lengthAdjust="spacing" textLength="77" x="1729.5" y="268.5369">new JPanel()</text><text fill="#000000" font-family="sans-serif" font-size="13" lengthAdjust="spacing" textLength="8" x="1758.331" y="412.9201">1</text></g><!--link chessGameGUI to Pair--><g id="link_chessGameGUI_Pair"><path codeLine="95" d="M1415.53,218.38 C1387.55,408.33 1326.48,794.01 1285.5,840.21 C1198.93,937.79 1042.5262,967.5065 967.8562,976.5765 " fill="none" id="chessGameGUI-to-Pair" style="stroke:#181818;stroke-width:1.0;"/><polygon fill="#181818" points="961.9,977.3,971.3167,980.1856,966.8635,976.6971,970.352,972.244,961.9,977.3" style="stroke:#181818;stroke-width:1.0;"/><text fill="#000000" font-family="sans-serif" font-size="13" lengthAdjust="spacing" textLength="82" x="1348.5" y="636.6969">handleClick()</text><text fill="#000000" font-family="sans-serif" font-size="13" lengthAdjust="spacing" textLength="8" x="969.6306" y="972.2156">1</text></g><!--reverse link chessGameGUI to Map--><g id="link_chessGameGUI_Map"><path codeLine="96" d="M1590.1458,136.4111 C1669.5258,154.3211 1752.07,185.24 1815.5,247.97 C1865.02,296.95 1880.68,382.5 1885.47,423.64 " fill="none" id="chessGameGUI-backto-Map" style="stroke:#181818;stroke-width:1.0;"/><polygon fill="#181818" points="1578.44,133.77,1583.4125,138.9925,1590.1458,136.4111,1585.1732,131.1886,1578.44,133.77" style="stroke:#181818;stroke-width:1.0;"/><text fill="#000000" font-family="sans-serif" font-size="13" lengthAdjust="spacing" textLength="118" x="1840.5" y="268.5369">loadPieceImages()</text><text fill="#000000" font-family="sans-serif" font-size="13" lengthAdjust="spacing" textLength="8" x="1876.0002" y="412.945">1</text></g><!--SRC=[nLN9Rjim4BtxAmZtKBkn0ZYz2Ks094035rsC5kab2GgQcjX4Q58WgRZfykyTBg8fHUwbX_fWcRFvwSsR8HFK6B8Kz0aq-JaY-2a8su0nbwgHjYHSscWrl8ByBEaMpr-ivd8TJ4NXdqU4AMClKv79j2IFYbVHkOQUpvNyFHen3yMx4fBd_q5smDSR15QfPYNW03QXM4cMbEit8NSMQvprW5eLx0aYug0hOpLbbWH0v-xOC7k5K2Ak5yI03PoPINZE8eUzLyMSJu-WNVcLKWAeZ9wjUeJ94C3P8EmilyjKXgeWjOSmBoEMZlMaPrqfggio5BbmlwET-v8ET1ToGMoZPSPnuj1OglizDXkrEnV2Lt_MVWcQMXZo_KTQa_BPmrLMlgjRJvGpU_0tTpTtcQORhK56_1-nX8kBoktsp5T9JVkMToALHBk6- -WALVQ-H7sDzZse3AjtV8Rx8H-IV5ql9BUSYYK71lqkSFEL2bvz-2SkiHVq0NmDX3ASSh1GEug1D1UK9k-UQsFJ538bMzJVzzey8a-zhSBQMRcwNYJcrtwvf35gLma8O1Qgjrfj_xP3IEsuMspf6an9Fj0wXNdR0g6raQl6MYKnwjs5_vLrsNTuIIK8zFfdgyHSJk_foWVuPqy3JLtXD0qrEdWwkkn5RAYi15mApXv2b_2hfuMW4_uZ_CFr8j-K-mrK56UTHTdr_JhBzqmlBTuzPJxyqrivTwz8Jc9q61aNFfwFunrHuZKZBUNIv2MFZp7cP1n4KuQ5C8q19EOxNwTmdZGQlIIdfwV4AKM3e9PZwpQyDcJ7xOPi6s5vZOnn- -JYHXrfTH1wFAMNsN70SIltIsGWqI5esP2mYuU9kmHd_ehh9Rr2XiQlCIlgYfH3_Hh8GOH1IvWng983ELwW4Lmu3Bx7FD6V2-n0KPmS31IALilzG4scVm00]--></g></svg>