<svg xmlns="http://www.w3.org/2000/svg" xmlns:xlink="http://www.w3.org/1999/xlink" contentStyleType="text/css" height="687px" preserveAspectRatio="none" style="width:1221px;height:687px;background:#FFFFFF;" version="1.1" viewBox="0 0 1221 687" width="1221px" zoomAndPan="magnify"><defs/><g><!--class Player--><g id="elem_Player"><rect codeLine="1" fill="#F1F1F1" height="129.4844" id="Player" rx="2.5" ry="2.5" style="stroke:#181818;stroke-width:0.5;" width="189" x="505" y="343.86"/><ellipse cx="574.75" cy="359.86" fill="#ADD1B2" rx="11" ry="11" style="stroke:#181818;stroke-width:1.0;"/><path d="M577.7188,365.5006 Q577.1406,365.7975 576.5,365.9381 Q575.8594,366.0944 575.1563,366.0944 Q572.6563,366.0944 571.3281,364.4538 Q570.0156,362.7975 570.0156,359.6725 Q570.0156,356.5475 571.3281,354.8913 Q572.6563,353.235 575.1563,353.235 Q575.8594,353.235 576.5,353.3913 Q577.1563,353.5475 577.7188,353.8444 L577.7188,356.5631 Q577.0938,355.985 576.5,355.7194 Q575.9063,355.4381 575.2813,355.4381 Q573.9375,355.4381 573.25,356.5163 Q572.5625,357.5788 572.5625,359.6725 Q572.5625,361.7663 573.25,362.8444 Q573.9375,363.9069 575.2813,363.9069 Q575.9063,363.9069 576.5,363.6413 Q577.0938,363.36 577.7188,362.7819 L577.7188,365.5006 Z " fill="#000000"/><text fill="#000000" font-family="sans-serif" font-size="14" lengthAdjust="spacing" textLength="41" x="595.25" y="364.7067">Player</text><line style="stroke:#181818;stroke-width:0.5;" x1="506" x2="693" y1="375.86" y2="375.86"/><rect fill="none" height="6" style="stroke:#C82930;stroke-width:1.0;" width="6" x="513" y="386.5084"/><text fill="#000000" font-family="sans-serif" font-size="14" lengthAdjust="spacing" textLength="110" x="525" y="392.8551">chessCount: int</text><rect fill="none" height="6" style="stroke:#C82930;stroke-width:1.0;" width="6" x="513" y="402.8053"/><text fill="#000000" font-family="sans-serif" font-size="14" lengthAdjust="spacing" textLength="55" x="525" y="409.152">side: int</text><rect fill="none" height="6" style="stroke:#C82930;stroke-width:1.0;" width="6" x="513" y="419.1022"/><text fill="#000000" font-family="sans-serif" font-size="14" lengthAdjust="spacing" textLength="88" x="525" y="425.4489">name: String</text><line style="stroke:#181818;stroke-width:1.0;" x1="506" x2="693" y1="432.7506" y2="432.7506"/><ellipse cx="516" cy="446.3991" fill="#84BE84" rx="3" ry="3" style="stroke:#038048;stroke-width:1.0;"/><text fill="#000000" font-family="sans-serif" font-size="14" lengthAdjust="spacing" textLength="163" x="525" y="449.7457">costChessCount(): void</text><ellipse cx="516" cy="462.6959" fill="#84BE84" rx="3" ry="3" style="stroke:#038048;stroke-width:1.0;"/><text fill="#000000" font-family="sans-serif" font-size="14" lengthAdjust="spacing" textLength="145" x="525" y="466.0426">getChessCount(): int</text></g><!--class Chess--><g id="elem_Chess"><rect codeLine="10" fill="#F1F1F1" height="129.4844" id="Chess" rx="2.5" ry="2.5" style="stroke:#181818;stroke-width:0.5;" width="192" x="142.5" y="550.65"/><ellipse cx="212.25" cy="566.65" fill="#ADD1B2" rx="11" ry="11" style="stroke:#181818;stroke-width:1.0;"/><path d="M215.2188,572.2906 Q214.6406,572.5875 214,572.7281 Q213.3594,572.8844 212.6563,572.8844 Q210.1563,572.8844 208.8281,571.2438 Q207.5156,569.5875 207.5156,566.4625 Q207.5156,563.3375 208.8281,561.6813 Q210.1563,560.025 212.6563,560.025 Q213.3594,560.025 214,560.1813 Q214.6563,560.3375 215.2188,560.6344 L215.2188,563.3531 Q214.5938,562.775 214,562.5094 Q213.4063,562.2281 212.7813,562.2281 Q211.4375,562.2281 210.75,563.3063 Q210.0625,564.3688 210.0625,566.4625 Q210.0625,568.5563 210.75,569.6344 Q211.4375,570.6969 212.7813,570.6969 Q213.4063,570.6969 214,570.4313 Q214.5938,570.15 215.2188,569.5719 L215.2188,572.2906 Z " fill="#000000"/><text fill="#000000" font-family="sans-serif" font-size="14" lengthAdjust="spacing" textLength="44" x="232.75" y="571.4967">Chess</text><line style="stroke:#181818;stroke-width:0.5;" x1="143.5" x2="333.5" y1="582.65" y2="582.65"/><rect fill="none" height="6" style="stroke:#C82930;stroke-width:1.0;" width="6" x="150.5" y="593.2984"/><text fill="#000000" font-family="sans-serif" font-size="14" lengthAdjust="spacing" textLength="88" x="162.5" y="599.6451">name: String</text><rect fill="none" height="6" style="stroke:#C82930;stroke-width:1.0;" width="6" x="150.5" y="609.5953"/><text fill="#000000" font-family="sans-serif" font-size="14" lengthAdjust="spacing" textLength="103" x="162.5" y="615.942">weight: double</text><rect fill="none" height="6" style="stroke:#C82930;stroke-width:1.0;" width="6" x="150.5" y="625.8922"/><text fill="#000000" font-family="sans-serif" font-size="14" lengthAdjust="spacing" textLength="55" x="162.5" y="632.2389">side: int</text><rect fill="none" height="6" style="stroke:#C82930;stroke-width:1.0;" width="6" x="150.5" y="642.1891"/><text fill="#000000" font-family="sans-serif" font-size="14" lengthAdjust="spacing" textLength="166" x="162.5" y="648.5357">loc: Pair&lt;String, String&gt;</text><line style="stroke:#181818;stroke-width:1.0;" x1="143.5" x2="333.5" y1="655.8375" y2="655.8375"/><ellipse cx="153.5" cy="669.4859" fill="#84BE84" rx="3" ry="3" style="stroke:#038048;stroke-width:1.0;"/><text fill="#000000" font-family="sans-serif" font-size="14" lengthAdjust="spacing" textLength="101" x="162.5" y="672.8326">toString(): void</text></g><!--class AbstructGame--><g id="elem_AbstructGame"><rect codeLine="19" fill="#F1F1F1" height="96.8906" id="AbstructGame" rx="2.5" ry="2.5" style="stroke:#181818;stroke-width:0.5;" width="421" x="729" y="360.16"/><ellipse cx="885.75" cy="376.16" fill="#A9DCDF" rx="11" ry="11" style="stroke:#181818;stroke-width:1.0;"/><path d="M885.8594,371.5037 L884.7031,376.5819 L887.0313,376.5819 L885.8594,371.5037 Z M884.375,369.2694 L887.3594,369.2694 L890.7188,381.66 L888.2656,381.66 L887.5,378.5975 L884.2188,378.5975 L883.4688,381.66 L881.0313,381.66 L884.375,369.2694 Z " fill="#000000"/><text fill="#000000" font-family="sans-serif" font-size="14" font-style="italic" lengthAdjust="spacing" textLength="99" x="906.25" y="381.0067">AbstructGame</text><line style="stroke:#181818;stroke-width:0.5;" x1="730" x2="1149" y1="392.16" y2="392.16"/><line style="stroke:#181818;stroke-width:0.5;" x1="730" x2="1149" y1="400.16" y2="400.16"/><polygon fill="#FFFF44" points="740,408.8084,744,412.8084,740,416.8084,736,412.8084" style="stroke:#B38D22;stroke-width:1.0;"/><text fill="#000000" font-family="sans-serif" font-size="14" lengthAdjust="spacing" textLength="208" x="749" y="417.1551">setPlayers(Player, Player): void</text><ellipse cx="740" cy="430.1053" fill="#84BE84" rx="3" ry="3" style="stroke:#038048;stroke-width:1.0;"/><text fill="#000000" font-family="sans-serif" font-size="14" lengthAdjust="spacing" textLength="146" x="749" y="433.452">gameOver(): boolean</text><ellipse cx="740" cy="446.4022" fill="#84BE84" rx="3" ry="3" style="stroke:#038048;stroke-width:1.0;"/><text fill="#000000" font-family="sans-serif" font-size="14" lengthAdjust="spacing" textLength="395" x="749" y="449.7489">move(Pair&lt;String, String&gt;, Pair&lt;String, String&gt;): boolean</text></g><!--class ChessGame--><g id="elem_ChessGame"><rect codeLine="25" fill="#F1F1F1" height="243.5625" id="ChessGame" rx="2.5" ry="2.5" style="stroke:#181818;stroke-width:0.5;" width="421" x="559" y="7"/><ellipse cx="722.75" cy="23" fill="#ADD1B2" rx="11" ry="11" style="stroke:#181818;stroke-width:1.0;"/><path d="M725.7188,28.6406 Q725.1406,28.9375 724.5,29.0781 Q723.8594,29.2344 723.1563,29.2344 Q720.6563,29.2344 719.3281,27.5938 Q718.0156,25.9375 718.0156,22.8125 Q718.0156,19.6875 719.3281,18.0313 Q720.6563,16.375 723.1563,16.375 Q723.8594,16.375 724.5,16.5313 Q725.1563,16.6875 725.7188,16.9844 L725.7188,19.7031 Q725.0938,19.125 724.5,18.8594 Q723.9063,18.5781 723.2813,18.5781 Q721.9375,18.5781 721.25,19.6563 Q720.5625,20.7188 720.5625,22.8125 Q720.5625,24.9063 721.25,25.9844 Q721.9375,27.0469 723.2813,27.0469 Q723.9063,27.0469 724.5,26.7813 Q725.0938,26.5 725.7188,25.9219 L725.7188,28.6406 Z " fill="#000000"/><text fill="#000000" font-family="sans-serif" font-size="14" lengthAdjust="spacing" textLength="85" x="743.25" y="27.8467">ChessGame</text><line style="stroke:#181818;stroke-width:0.5;" x1="560" x2="979" y1="39" y2="39"/><rect fill="none" height="6" style="stroke:#C82930;stroke-width:1.0;" width="6" x="567" y="49.6484"/><text fill="#000000" font-family="sans-serif" font-size="14" lengthAdjust="spacing" textLength="100" x="579" y="55.9951">player1: Player</text><rect fill="none" height="6" style="stroke:#C82930;stroke-width:1.0;" width="6" x="567" y="65.9453"/><text fill="#000000" font-family="sans-serif" font-size="14" lengthAdjust="spacing" textLength="100" x="579" y="72.292">player2: Player</text><rect fill="none" height="6" style="stroke:#C82930;stroke-width:1.0;" width="6" x="567" y="82.2422"/><text fill="#000000" font-family="sans-serif" font-size="14" lengthAdjust="spacing" textLength="134" x="579" y="88.5889">board: ChessBoard</text><rect fill="none" height="6" style="stroke:#C82930;stroke-width:1.0;" width="6" x="567" y="98.5391"/><text fill="#000000" font-family="sans-serif" font-size="14" lengthAdjust="spacing" textLength="149" x="579" y="104.8857">isGameOver: boolean</text><rect fill="none" height="6" style="stroke:#C82930;stroke-width:1.0;" width="6" x="567" y="114.8359"/><text fill="#000000" font-family="sans-serif" font-size="14" lengthAdjust="spacing" textLength="54" x="579" y="121.1826">turn: int</text><line style="stroke:#181818;stroke-width:1.0;" x1="560" x2="979" y1="128.4844" y2="128.4844"/><ellipse cx="570" cy="142.1328" fill="#84BE84" rx="3" ry="3" style="stroke:#038048;stroke-width:1.0;"/><text fill="#000000" font-family="sans-serif" font-size="14" lengthAdjust="spacing" textLength="78" x="579" y="145.4795">start(): void</text><ellipse cx="570" cy="158.4297" fill="#84BE84" rx="3" ry="3" style="stroke:#038048;stroke-width:1.0;"/><text fill="#000000" font-family="sans-serif" font-size="14" lengthAdjust="spacing" textLength="143" x="579" y="161.7764">showAllChess(): void</text><ellipse cx="570" cy="174.7266" fill="#84BE84" rx="3" ry="3" style="stroke:#038048;stroke-width:1.0;"/><text fill="#000000" font-family="sans-serif" font-size="14" lengthAdjust="spacing" textLength="154" x="579" y="178.0732">generateChess(): void</text><ellipse cx="570" cy="191.0234" fill="#84BE84" rx="3" ry="3" style="stroke:#038048;stroke-width:1.0;"/><text fill="#000000" font-family="sans-serif" font-size="14" lengthAdjust="spacing" textLength="208" x="579" y="194.3701">setPlayers(Player, Player): void</text><ellipse cx="570" cy="207.3203" fill="#84BE84" rx="3" ry="3" style="stroke:#038048;stroke-width:1.0;"/><text fill="#000000" font-family="sans-serif" font-size="14" lengthAdjust="spacing" textLength="146" x="579" y="210.667">gameOver(): boolean</text><ellipse cx="570" cy="223.6172" fill="#84BE84" rx="3" ry="3" style="stroke:#038048;stroke-width:1.0;"/><text fill="#000000" font-family="sans-serif" font-size="14" lengthAdjust="spacing" textLength="395" x="579" y="226.9639">move(Pair&lt;String, String&gt;, Pair&lt;String, String&gt;): boolean</text><rect fill="#F24D5C" height="6" style="stroke:#C82930;stroke-width:1.0;" width="6" x="567" y="236.9141"/><text fill="#000000" font-family="sans-serif" font-size="14" lengthAdjust="spacing" textLength="162" x="579" y="243.2607">checkGameOver(): void</text></g><!--class ChessBoard--><g id="elem_ChessBoard"><rect codeLine="41" fill="#F1F1F1" height="162.0781" id="ChessBoard" rx="2.5" ry="2.5" style="stroke:#181818;stroke-width:0.5;" width="463" x="7" y="327.57"/><ellipse cx="191.75" cy="343.57" fill="#ADD1B2" rx="11" ry="11" style="stroke:#181818;stroke-width:1.0;"/><path d="M194.7188,349.2106 Q194.1406,349.5075 193.5,349.6481 Q192.8594,349.8044 192.1563,349.8044 Q189.6563,349.8044 188.3281,348.1638 Q187.0156,346.5075 187.0156,343.3825 Q187.0156,340.2575 188.3281,338.6013 Q189.6563,336.945 192.1563,336.945 Q192.8594,336.945 193.5,337.1013 Q194.1563,337.2575 194.7188,337.5544 L194.7188,340.2731 Q194.0938,339.695 193.5,339.4294 Q192.9063,339.1481 192.2813,339.1481 Q190.9375,339.1481 190.25,340.2263 Q189.5625,341.2888 189.5625,343.3825 Q189.5625,345.4763 190.25,346.5544 Q190.9375,347.6169 192.2813,347.6169 Q192.9063,347.6169 193.5,347.3513 Q194.0938,347.07 194.7188,346.4919 L194.7188,349.2106 Z " fill="#000000"/><text fill="#000000" font-family="sans-serif" font-size="14" lengthAdjust="spacing" textLength="85" x="212.25" y="348.4167">ChessBoard</text><line style="stroke:#181818;stroke-width:0.5;" x1="8" x2="469" y1="359.57" y2="359.57"/><rect fill="none" height="6" style="stroke:#C82930;stroke-width:1.0;" width="6" x="15" y="370.2184"/><text fill="#000000" font-family="sans-serif" font-size="14" lengthAdjust="spacing" textLength="120" x="27" y="376.5651">_board: Chess[][]</text><rect fill="none" height="6" style="stroke:#C82930;stroke-width:1.0;" width="6" x="15" y="386.5153"/><text fill="#000000" font-family="sans-serif" font-size="14" lengthAdjust="spacing" textLength="134" x="27" y="392.862">_refboard: String[][]</text><line style="stroke:#181818;stroke-width:1.0;" x1="8" x2="469" y1="400.1638" y2="400.1638"/><ellipse cx="18" cy="413.8122" fill="#84BE84" rx="3" ry="3" style="stroke:#038048;stroke-width:1.0;"/><text fill="#000000" font-family="sans-serif" font-size="14" lengthAdjust="spacing" textLength="119" x="27" y="417.1589">printBoard(): void</text><ellipse cx="18" cy="430.1091" fill="#84BE84" rx="3" ry="3" style="stroke:#038048;stroke-width:1.0;"/><text fill="#000000" font-family="sans-serif" font-size="14" lengthAdjust="spacing" textLength="142" x="27" y="433.4557">printRefBoard(): void</text><ellipse cx="18" cy="446.4059" fill="#84BE84" rx="3" ry="3" style="stroke:#038048;stroke-width:1.0;"/><text fill="#000000" font-family="sans-serif" font-size="14" lengthAdjust="spacing" textLength="168" x="27" y="449.7526">setUpInitialPieces(): void</text><ellipse cx="18" cy="462.7028" fill="#84BE84" rx="3" ry="3" style="stroke:#038048;stroke-width:1.0;"/><text fill="#000000" font-family="sans-serif" font-size="14" lengthAdjust="spacing" textLength="437" x="27" y="466.0495">isValidMove(Pair&lt;String, String&gt;, Pair&lt;String, String&gt;): boolean</text><ellipse cx="18" cy="478.9997" fill="#84BE84" rx="3" ry="3" style="stroke:#038048;stroke-width:1.0;"/><text fill="#000000" font-family="sans-serif" font-size="14" lengthAdjust="spacing" textLength="429" x="27" y="482.3464">makeMove(int, Pair&lt;String, String&gt;, Pair&lt;String, String&gt;): void</text></g><!--class Pair--><g id="elem_Pair"><rect codeLine="52" fill="#F1F1F1" height="113.1875" id="Pair" rx="2.5" ry="2.5" style="stroke:#181818;stroke-width:0.5;" width="78" x="369.5" y="558.79"/><ellipse cx="393.95" cy="574.79" fill="#ADD1B2" rx="11" ry="11" style="stroke:#181818;stroke-width:1.0;"/><path d="M396.9188,580.4306 Q396.3406,580.7275 395.7,580.8681 Q395.0594,581.0244 394.3563,581.0244 Q391.8563,581.0244 390.5281,579.3838 Q389.2156,577.7275 389.2156,574.6025 Q389.2156,571.4775 390.5281,569.8213 Q391.8563,568.165 394.3563,568.165 Q395.0594,568.165 395.7,568.3213 Q396.3563,568.4775 396.9188,568.7744 L396.9188,571.4931 Q396.2938,570.915 395.7,570.6494 Q395.1063,570.3681 394.4813,570.3681 Q393.1375,570.3681 392.45,571.4463 Q391.7625,572.5088 391.7625,574.6025 Q391.7625,576.6963 392.45,577.7744 Q393.1375,578.8369 394.4813,578.8369 Q395.1063,578.8369 395.7,578.5713 Q396.2938,578.29 396.9188,577.7119 L396.9188,580.4306 Z " fill="#000000"/><text fill="#000000" font-family="sans-serif" font-size="14" lengthAdjust="spacing" textLength="25" x="410.05" y="579.6367">Pair</text><line style="stroke:#181818;stroke-width:0.5;" x1="370.5" x2="446.5" y1="590.79" y2="590.79"/><polygon fill="none" points="380.5,599.4384,384.5,603.4384,380.5,607.4384,376.5,603.4384" style="stroke:#B38D22;stroke-width:1.0;"/><text fill="#000000" font-family="sans-serif" font-size="14" lengthAdjust="spacing" textLength="25" x="389.5" y="607.7851">first</text><polygon fill="none" points="380.5,615.7353,384.5,619.7353,380.5,623.7353,376.5,619.7353" style="stroke:#B38D22;stroke-width:1.0;"/><text fill="#000000" font-family="sans-serif" font-size="14" lengthAdjust="spacing" textLength="52" x="389.5" y="624.082">second</text><ellipse cx="380.5" cy="637.0322" fill="none" rx="3" ry="3" style="stroke:#038048;stroke-width:1.0;"/><text fill="#000000" font-family="sans-serif" font-size="14" lengthAdjust="spacing" textLength="33" x="389.5" y="640.3789">x: int</text><ellipse cx="380.5" cy="653.3291" fill="none" rx="3" ry="3" style="stroke:#038048;stroke-width:1.0;"/><text fill="#000000" font-family="sans-serif" font-size="14" lengthAdjust="spacing" textLength="33" x="389.5" y="656.6757">y: int</text><line style="stroke:#181818;stroke-width:0.5;" x1="370.5" x2="446.5" y1="663.9775" y2="663.9775"/></g><!--reverse link ChessGame to AbstructGame--><g id="link_ChessGame_AbstructGame"><path codeLine="59" d="M846.7013,255.9481 C870.2313,294.4081 891.77,329.61 910.2,359.72 " fill="none" id="ChessGame-backto-AbstructGame" style="stroke:#181818;stroke-width:1.0;"/><polygon fill="#181818" points="843.57,250.83,844.8549,260.5947,846.1794,255.0951,851.679,256.4196,843.57,250.83" style="stroke:#181818;stroke-width:1.0;"/></g><!--link ChessGame to ChessBoard--><g id="link_ChessGame_ChessBoard"><path codeLine="61" d="M558.87,239.99 C503.28,269.07 460.2797,291.5769 408.2997,318.7669 " fill="none" id="ChessGame-to-ChessBoard" style="stroke:#181818;stroke-width:1.0;"/><polygon fill="none" points="392.35,327.11,411.0807,324.0835,405.5187,313.4504,392.35,327.11" style="stroke:#181818;stroke-width:1.0;"/></g><!--link ChessGame to Player--><g id="link_ChessGame_Player"><path codeLine="63" d="M695.43,250.83 C675.92,282.71 658.7716,310.7421 641.9016,338.3121 " fill="none" id="ChessGame-to-Player" style="stroke:#181818;stroke-width:1.0;"/><polygon fill="#181818" points="638.77,343.43,646.8794,337.8409,641.3797,339.1651,640.0555,333.6654,638.77,343.43" style="stroke:#181818;stroke-width:1.0;"/><text fill="#000000" font-family="sans-serif" font-size="13" lengthAdjust="spacing" textLength="66" x="674.5" y="293.6369">setPlayers</text></g><!--link ChessBoard to Chess--><g id="link_ChessBoard_Chess"><path codeLine="65" d="M238.5,489.95 C238.5,510.01 238.5,525.25 238.5,544.4 " fill="none" id="ChessBoard-to-Chess" style="stroke:#181818;stroke-width:1.0;"/><polygon fill="#181818" points="238.5,550.4,242.5,541.4,238.5,545.4,234.5,541.4,238.5,550.4" style="stroke:#181818;stroke-width:1.0;"/></g><!--link ChessGame to Pair--><g id="link_ChessGame_Pair"><path codeLine="67" d="M980.41,184.57 C1052.5,214.47 1125.48,259.77 1167.5,327.57 C1205.45,388.8 1214.12,434.73 1167.5,489.65 C1073.4,600.48 596.2498,612.9664 453.9698,614.2364 " fill="none" id="ChessGame-to-Pair" style="stroke:#181818;stroke-width:1.0;stroke-dasharray:7.0,7.0;"/><polygon fill="#181818" points="447.97,614.29,457.0053,618.2095,452.9698,614.2454,456.9339,610.2098,447.97,614.29" style="stroke:#181818;stroke-width:1.0;"/></g><!--link Chess to Pair--><g id="link_Chess_Pair"><path codeLine="69" d="M334.92,615.39 C347.06,615.39 352.89,615.39 363.38,615.39 " fill="none" id="Chess-to-Pair" style="stroke:#181818;stroke-width:1.0;"/><polygon fill="#181818" points="369.38,615.39,360.38,611.39,364.38,615.39,360.38,619.39,369.38,615.39" style="stroke:#181818;stroke-width:1.0;"/></g><!--link ChessBoard to Pair--><g id="link_ChessBoard_Pair"><path codeLine="71" d="M305.2,489.95 C326.87,516.06 346.3766,539.5642 365.3866,562.4542 " fill="none" id="ChessBoard-to-Pair" style="stroke:#181818;stroke-width:1.0;stroke-dasharray:7.0,7.0;"/><polygon fill="#181818" points="369.22,567.07,366.5471,557.5908,366.0255,563.2235,360.3928,562.7019,369.22,567.07" style="stroke:#181818;stroke-width:1.0;"/></g><!--SRC=[nPH1Rm8X48Nl_WgINcmKa_QuCIRMW-cXgMdJNenfa1sLY620rHhR_ruMM6Itwwc7UbcPnxpzV0nIJhH6CqvEeCuTP3yOqGreFP65C1bYmeIgPZcaQq5sTlrg51DhNyBOFNk8IcqcqQHxcw63P7aGrz3GIillJeSw4YUThxu27O6jDvOhbyMImnKqBcc6PeIfeU_j1uzHWzD8Nu-45eCijL646kHvnkMoe6PgKP3dka4QZ4zCT_sp7n9i_5BRytm0LTelfUH0H51syW3TDi1-AtRINmygeS9exn3kii1Igzutgaj9L9vvauVoUwWpPrb2rv4nCeKIISOnGss8QXwntiZZc7Fd_klq1IXYe4txnrZZuDFjDB6lXYA9tAKLC_z8Wvmlvekghc0L9F-oYnQJszkwSNQD79pm0gispMRqjdyKp332PmmeD4Da-frmbZ_zAGeR9Tc2yx0exIrNZUgXbPlYnLanfKsyH5IAYlhpCbezT8h_2PSX7s9SkukfXl7NA1tbcZGACvGbunLs-ACijxXbsZSOZ1nvg25SM_h6QiyF]--></g></svg>